<svg xmlns="http://www.w3.org/2000/svg" aria-hidden="true" style="position:absolute;width:0;height:0;overflow:hidden">
  <defs>
    <symbol id="icon-bg-man" viewBox="0 0 27 32">
      <path fill="#505f98" d="M7.511 28.251c-1.906.192-3.87.402-5.547 1.34-.224.126-.452.274-.576.5-.249.455.034 1.055.471 1.329s.978.305 1.493.328c9.172.4 18.358.243 27.537.087 2.666-.045 5.374-.097 7.929-.871.459-.139.964-.347 1.137-.8.226-.593-.29-1.25-.892-1.435s-1.244-.047-1.867.034c-2.162.28-4.343-.148-6.495-.491-4.214-.669-8.585-1.214-12.853-1.315-1.455-.034-2.698.471-4.122.67-2.056.29-4.148.417-6.216.625z" opacity=".24" style="fill:var(--color1, #505f98)"/>
      <path fill="#fff" d="M.015 10.475 4.767.796l2.83 1.386-4.752 9.679-2.83-1.386z" style="fill:var(--color2, #fff)"/>
      <path fill="#505f98" d="m1.116 10.177.579-1.183 1.906.931-.579 1.183-1.906-.931z" style="fill:var(--color1, #505f98)"/>
      <path d="m1.116 10.177.579-1.183 1.906.931-.579 1.183-1.906-.931z" style="fill:var(--color3, #000)"/>
      <path fill="#505f98" d="m1.696 9.003.579-1.183 1.906.931-.579 1.183-1.906-.931z" style="fill:var(--color1, #505f98)"/>
      <path d="m1.696 9.003.579-1.183 1.906.931-.579 1.183-1.906-.931z" style="fill:var(--color3, #000)"/>
      <path fill="#505f98" d="m2.274 7.829.579-1.183 1.906.931L4.18 8.76l-1.906-.931z" style="fill:var(--color1, #505f98)"/>
      <path d="m2.274 7.829.579-1.183 1.906.931L4.18 8.76l-1.906-.931z" style="fill:var(--color3, #000)"/>
      <path fill="#505f98" d="m2.854 6.656.579-1.183 1.906.931-.579 1.183-1.906-.931z" style="fill:var(--color1, #505f98)"/>
      <path d="m2.854 6.656.579-1.183 1.906.931-.579 1.183-1.906-.931z" style="fill:var(--color3, #000)"/>
      <path fill="#505f98" d="m3.433 5.481.579-1.183 1.906.931-.579 1.183-1.906-.931z" style="fill:var(--color1, #505f98)"/>
      <path fill="#505f98" d="m4.012 4.308.579-1.183 1.906.931-.579 1.183-1.906-.931z" style="fill:var(--color1, #505f98)"/>
      <path fill="#505f98" d="m4.59 3.134.579-1.183 1.906.931-.579 1.183-1.906-.931z" style="fill:var(--color1, #505f98)"/>
      <path d="m3.946 4.455.579-1.183 1.906.931-.579 1.183-1.906-.931z" style="fill:var(--color3, #000)"/>
      <path d="m4.526 3.281.579-1.183 1.906.931-.579 1.183-1.906-.931z" style="fill:var(--color3, #000)"/>
      <path fill="#505f98" d="M16.855 23.508h4.023v3.364h-4.023v-3.364z" style="fill:var(--color1, #505f98)"/>
      <path d="M16.855 23.508h4.023v3.364h-4.023v-3.364z" style="fill:var(--color3, #000)"/>
      <path fill="#505f98" d="M8.7 9.477h20.497c.212 0 .384.172.384.384v13.795a.384.384 0 0 1-.384.384H8.7a.384.384 0 0 1-.384-.384V9.861c0-.212.172-.384.384-.384z" style="fill:var(--color1, #505f98)"/>
      <path d="M28.884 10.685v12.067a.753.753 0 0 1-.752.756H9.602a.752.752 0 0 1-.753-.756V10.685a.758.758 0 0 1 .753-.756h18.53a.752.752 0 0 1 .752.756z" opacity=".65" style="fill:var(--color3, #000)"/>
      <path fill="#505f98" d="M15.007 26.462h8.457v.862h-8.457v-.862z" style="fill:var(--color1, #505f98)"/>
      <path d="M16.855 25.969h4.023v.492h-4.023v-.492z" style="fill:var(--color3, #000)"/>
      <path fill="#505f98" d="M23.218 2.43v.84l-.521.004a2.34 2.34 0 0 1-.432 1.081l.445.458-.61.585-.438-.452c-.27.184-.575.311-.897.375v.545h-.844v-.532a2.385 2.385 0 0 1-1.004-.391l-.367.362-.598-.602.364-.355a2.365 2.365 0 0 1-.425-1.078h-.584v-.84h.605a2.36 2.36 0 0 1 .432-.92l-.338-.348.61-.585.346.359a2.31 2.31 0 0 1 .951-.359v-.578h.844V.59c.343.068.668.209.951.414l.432-.423.594.597-.432.43c.169.249.29.529.355.823h.561zm-4.354.53a1.42 1.42 0 0 0 1.422 1.418 1.422 1.422 0 0 0 1.426-1.414c.001-.782-.636-1.417-1.422-1.418s-1.425.632-1.426 1.414z" style="fill:var(--color1, #505f98)"/>
      <path fill="#505f98" d="m26.338 3.83-.038.494-.308-.019a1.376 1.376 0 0 1-.299.616l.241.29-.384.316-.236-.285c-.166.096-.35.157-.541.18l-.025.321-.494-.037.024-.313a1.392 1.392 0 0 1-.57-.274l-.231.197-.323-.377.229-.193a1.392 1.392 0 0 1-.201-.652l-.333-.026.037-.493.354.026a1.39 1.39 0 0 1 .292-.522l-.182-.22.384-.316.186.226c.175-.099.37-.157.571-.171l.026-.342.494.037-.027.348c.197.055.38.152.536.285l.271-.23.322.377-.274.233c.089.154.147.324.171.5l.33.024zm-2.572.118a.834.834 0 0 0 1.378.697.834.834 0 0 0-.482-1.465.835.835 0 0 0-.896.768z" style="fill:var(--color1, #505f98)"/>
      <path d="M28.884 10.688v.266H8.85v-.266a.752.752 0 0 1 .753-.759h18.53c.2 0 .392.08.533.223s.22.336.219.537zM9.26 12.267h1.93v9.313H9.26v-9.313zM14.104 12.923h9.073v8.574h-9.073v-8.574z" style="fill:var(--color3, #000)"/>
      <path d="M16.198 16.944h.287v.369h-.287v-.369zM16.198 15.22h.287v.369h-.287v-.369zM12.298 16.944h.287v.369h-.287v-.369zM12.298 15.22h.287v.369h-.287v-.369zM16.198 13.374h.287v.369h-.287v-.369zM12.339 13.374h.287v.369h-.287v-.369zM14.309 13.374h.287v.369h-.287v-.369zM14.309 16.944h.287v.369h-.287v-.369z" style="fill:var(--color3, #000)"/>
      <path fill="#505f98" d="M12.832 16.862h3.202v-2.995h-3.202v2.995zm2.879-.317h-2.557v-2.364h2.557v2.364z" style="fill:var(--color1, #505f98)"/>
      <path d="M12.832 16.862h3.202v-2.995h-3.202v2.995zm2.879-.317h-2.557v-2.364h2.557v2.364zM24.491 11.446h4.105v4.103h-4.105v-4.103zM24.491 15.959h4.105v4.103h-4.105v-4.103z" style="fill:var(--color3, #000)"/>
      <path d="M9.26 12.226h1.93v.533H9.26v-.533z" opacity=".65" style="fill:var(--color3, #000)"/>
      <path fill="#fff" d="m.93 9.429 8.415-6.75 1.974 2.454-8.416 6.75L.929 9.429z" style="fill:var(--color2, #fff)"/>
      <path fill="#505f98" d="m2.109 9.619 1.028-.83 1.337 1.653-1.028.83-1.337-1.653z" style="fill:var(--color1, #505f98)"/>
      <path d="m2.109 9.619 1.028-.83 1.337 1.653-1.028.83-1.337-1.653z" style="fill:var(--color3, #000)"/>
      <path fill="#505f98" d="m3.078 8.808 1.027-.826 1.331 1.65-1.027.826-1.331-1.65z" style="fill:var(--color1, #505f98)"/>
      <path d="m3.078 8.808 1.027-.826 1.331 1.65-1.027.826-1.331-1.65z" style="fill:var(--color3, #000)"/>
      <path fill="#505f98" d="m4.101 7.99 1.027-.826 1.331 1.65-1.027.826-1.331-1.65z" style="fill:var(--color1, #505f98)"/>
      <path d="m4.101 7.99 1.027-.826 1.331 1.65-1.027.826-1.331-1.65z" style="fill:var(--color3, #000)"/>
      <path fill="#505f98" d="m5.124 7.173 1.027-.826 1.331 1.65-1.027.826-1.331-1.65z" style="fill:var(--color1, #505f98)"/>
      <path d="m5.124 7.173 1.027-.826 1.331 1.65-1.027.826-1.331-1.65z" style="fill:var(--color3, #000)"/>
      <path fill="#505f98" d="m6.195 6.334 1.028-.83L8.56 7.157l-1.028.83-1.337-1.653zM7.224 5.497l1.028-.83L9.589 6.32l-1.028.83-1.337-1.653z" style="fill:var(--color1, #505f98)"/>
      <path fill="#505f98" d="m8.193 4.72 1.027-.826 1.331 1.65-1.027.826-1.331-1.65z" style="fill:var(--color1, #505f98)"/>
      <path d="m9.424 6.491-.866.689-1.31-1.65.866-.689 1.31 1.65z" style="fill:var(--color3, #000)"/>
      <path d="m8.071 4.827 1.027-.826 1.331 1.65-1.027.826-1.331-1.65z" style="fill:var(--color3, #000)"/>
      <path fill="#505f98" d="M5.976 9.811v5.04h-.862v-5.04c0-.186.116-.352.288-.413v-.503c0-.087.069-.157.154-.157s.154.07.154.157v.512a.439.439 0 0 1 .267.404z" style="fill:var(--color1, #505f98)"/>
      <path d="M5.976 9.811v5.04h-.862v-5.04c0-.186.116-.352.288-.413v-.503c0-.087.069-.157.154-.157s.154.07.154.157v.512a.439.439 0 0 1 .267.404z" style="fill:var(--color3, #000)"/>
      <path fill="#505f98" d="M4.672 13.005h1.869c.051 0 .092.041.092.092v.185a.092.092 0 0 1-.092.092H4.672a.092.092 0 0 1-.092-.092v-.185c0-.051.041-.092.092-.092z" style="fill:var(--color1, #505f98)"/>
      <path fill="#505f98" d="M5.593 16.369c-.352 0-.644-.526-.644-.877v-2.323h1.273v2.323c0 .351-.278.877-.629.877z" style="fill:var(--color1, #505f98)"/>
      <path d="M4.672 13.005h1.869c.051 0 .092.041.092.092v.185a.092.092 0 0 1-.092.092H4.672a.092.092 0 0 1-.092-.092v-.185c0-.051.041-.092.092-.092z" style="fill:var(--color3, #000)"/>
      <path d="M5.593 16.369c-.352 0-.644-.518-.644-.864v-2.131h1.273v2.131c0 .346-.278.864-.629.864z" style="fill:var(--color3, #000)"/>
      <path fill="#28353d" d="M13.802 18.831c-.028-.146-.045-.353.008-.367.112-.032-.008.367-.008.367z" style="fill:var(--color4, #28353d)"/>
      <path fill="#606161" d="M19.679 26.852c-.02.517-.42 2.416-.433 2.933 0 .172.046.437-.01.603-.114.352-.52.304-.573.096l-.02-.103c-.188-1.006.114-2.147 0-3.46-.069-.802-.388-2.348-.596-2.358-.11 0-2.623 5.298-2.842 5.624-.108.165-.41.139-.557.271s1.221-4.017 1.794-6.209c.134-.453.221-.917.26-1.387.016-.271-.072-.363.179-.443.173-.055.414-.04.599-.053.202-.015 2.081-.019 2.081.114-.018.72.167 3.178.119 4.371z" style="fill:var(--color5, #606161)"/>
      <path d="M19.679 26.852c-.02.517-.42 2.416-.433 2.933 0 .172.046.437-.01.603-.114.352-.52.304-.573.096l-.02-.103c-.188-1.006.114-2.147 0-3.46-.069-.802-.388-2.348-.596-2.358-.11 0-2.623 5.298-2.842 5.624-.108.165-.41.139-.557.271s1.221-4.017 1.794-6.209c.134-.453.221-.917.26-1.387.016-.271-.072-.363.179-.443.173-.055.414-.04.599-.053.202-.015 2.081-.019 2.081.114-.018.72.167 3.178.119 4.371z" style="fill:var(--color3, #000)"/>
      <path fill="#ffcd9c" d="M17.461 15.842c-.016-.164-.093-.252-.169-.252s-.122.087-.106.252a.25.25 0 0 0 .218.24c.076 0 .074-.077.057-.24zM18.79 15.842c.01-.164.086-.253.164-.253s.128.087.116.253a.242.242 0 0 1-.214.24c-.077 0-.078-.076-.066-.24z" style="fill:var(--color6, #ffcd9c)"/>
      <path fill="#f4ad7d" d="M18.943 16.561c-.011.086-.376.465-.793.465s-.76-.346-.832-.484.22-1.916.389-2.065c.169-.149.855-.051.912.028.138.186.369 1.711.324 2.056z" style="fill:var(--color7, #f4ad7d)"/>
      <path fill="#ffcd9c" d="M18.771 15.22c-.057.027-.279-.539-.325-.634s-.039-.193.017-.22c.057-.027.14.029.186.123s.177.704.121.731zM17.525 15.179c-.059-.02.097-.607.131-.709s.11-.168.165-.148.079.119.045.221c-.034.102-.285.656-.341.636z" style="fill:var(--color6, #ffcd9c)"/>
      <path fill="#f4ad7d" d="M17.758 16.492h.893l.134.846c-.486.262-.77.233-1.15-.058l.123-.788z" style="fill:var(--color7, #f4ad7d)"/>
      <path fill="#f4ad7d" d="M18.128 16.662c0-.016.037-.029.082-.029s.082.013.082.029-.036.018-.082.018-.082-.002-.082-.018z" style="fill:var(--color7, #f4ad7d)"/>
      <path fill="#606161" d="M18.99 16.279c.034-.202.089-1.645-.046-1.836s-.945-.315-1.067-.285c-.275.067-.227.263-.227.263a.47.47 0 0 0-.232.064c-.094.063-.293.973-.134 1.661.071.309.351.578.835.592.596.016.831-.209.872-.458z" style="fill:var(--color5, #606161)"/>
      <path fill="#606161" d="M17.88 14.226a.31.31 0 0 1 .23-.071c.252-.001.501.045.736.137.13.046.248.12.345.219a.454.454 0 0 1 .122.383c-.043.206-.259.333-.33.531-.057.159-.016.312-.015.472a2.36 2.36 0 0 1-.028.385c-.04.248-.267.471-.85.457-.47-.013-.742-.281-.811-.588a3.394 3.394 0 0 1 .072-1.536c.253.059.512.088.772.087.276.002.55-.03.818-.096.046.267.045.801.03 1.2z" style="fill:var(--color5, #606161)"/>
      <path fill="#505f98" d="M16.439 17.188a.857.857 0 0 0-.395.136c-.203.16-.218.457-.215.717a6.12 6.12 0 0 0 .074 1.073c.061.325.171.638.262.956.143.518.218 1.053.223 1.59 0 .295-.005.62.179.851.201.251.556.3.876.318.454.027.909.03 1.363.011.304-.014.628-.044.869-.231.192-.149.643-5.202.293-5.33s-.726-.16-1.097-.191c-.832-.07-1.615-.126-2.433.1z" style="fill:var(--color1, #505f98)"/>
      <path d="M19.057 27.663c-.045.573-.151 2.655-.151 2.655l-.271-.009c-.186-1 .113-2.135 0-3.441-.068-.797-.383-2.334-.59-2.345.062-.514.409-.437.409-.437.253.377.47.776.651 1.193.207.541-.003 1.809-.048 2.384z" style="fill:var(--color3, #000)"/>
      <path fill="#505f98" d="M13.955 30.36a.268.268 0 0 0-.092.123.187.187 0 0 0 .011.121.353.353 0 0 0 .245.188c.106.02.214.024.321.011l.342-.023c.087-.002.173-.016.257-.041s.152-.084.19-.162a.431.431 0 0 0 .023-.178c0-.279-.099-.506-.409-.438-.324.06-.629.197-.888.399zM19.639 30.485a.253.253 0 0 1 .085.112.171.171 0 0 1-.01.109.322.322 0 0 1-.225.17.936.936 0 0 1-.294.01l-.311-.021c-.079-.002-.157-.014-.233-.037s-.139-.077-.173-.147a.383.383 0 0 1-.021-.161c0-.252.089-.46.374-.396.295.055.572.178.808.36zM20.016 17.272s1.342.786 1.745 1.78-1.32 3.389-1.32 3.389l-.369-.377s.899-1.807.76-2.259-.684-.873-.684-.873l-.133-1.66zM16.198 18.825s-1.866.836-2.625.426.022-2.471.022-2.471l.508.172s-.424 1.051.061 1.207 1.94-.869 1.94-.869l.093 1.535z" style="fill:var(--color1, #505f98)"/>
      <path fill="#f4ad7d" d="M19.711 22.399a.384.384 0 0 0-.127.136.312.312 0 0 0-.019.145.387.387 0 0 0 .147.31.53.53 0 0 0 .221.061c.048.008.097.008.144 0s.089-.04.108-.083a.33.33 0 0 0 .008-.083c.006-.136.109-.248.194-.359a.144.144 0 0 0 .038-.077.13.13 0 0 0-.034-.087c-.058-.078-.2-.22-.314-.208s-.279.177-.367.244zM14.424 16.469a.295.295 0 0 0 .049-.112.099.099 0 0 0-.055-.102c-.062-.023-.136.038-.197.012a.13.13 0 0 1-.05-.046.632.632 0 0 1-.12-.338.652.652 0 0 0-.018-.192.142.142 0 0 0-.153-.1c-.058.013-.09.069-.126.113s-.108.098-.155.153a.727.727 0 0 0-.132.385c-.025.171-.041.368.085.491.097.095.394.207.53.157.151-.057.269-.297.344-.421z" style="fill:var(--color7, #f4ad7d)"/>
    </symbol>
    <symbol id="icon-facebook" viewBox="0 0 32 32">
      <path d="M18 11V7a2 2 0 0 1 2-2h2V0h-4a6 6 0 0 0-6 6v5H8v5h4v16h6V16h4l2-5h-6z"/>
    </symbol>
    <symbol id="icon-icon" viewBox="0 0 32 32">
      <path d="M31.665 19.769a.538.538 0 0 0-.587.128L28.8 22.291V8.071h.003l2.173-2.346a.533.533 0 0 0-.03-.754l-.782-.728 1.087-1.173a.533.533 0 0 0-.03-.753L28.874.144a.533.533 0 0 0-.753.029l-3.792 4.094H5.867A2.67 2.67 0 0 0 3.2 1.6h-.533A2.67 2.67 0 0 0 0 4.267v22.932c0 .294.239.533.533.533h8.073l-1.12 1.345a.534.534 0 0 0 .069.751l2.459 2.047a.532.532 0 0 0 .751-.069l2.73-3.279c.188-.227.31-.503.35-.795h9.773l-3.205 3.366a.534.534 0 0 0 .387.901h10.666a.533.533 0 0 0 .533-.533V20.267a.535.535 0 0 0-.335-.496zM29.831 5.385 28.8 6.5v-.784l.64-.693.391.363zm-2.098-.087V5.29h.006l.917-.99-1.566-1.449-5.434 5.872 1.566 1.449 4.511-4.874zm-5.535 5.378-1.227.358.262-1.251.965.893zm7.907-7.942-1.566-1.448-.725.783 1.566 1.45.725-.784zM2.667 2.665H3.2a1.6 1.6 0 0 1 1.6 1.6v20.279a2.639 2.639 0 0 0-1.6-.547h-.533a2.639 2.639 0 0 0-1.6.547V4.265a1.6 1.6 0 0 1 1.6-1.6zM3.2 25.064h-.533a1.6 1.6 0 0 0-1.6 1.6H4.8a1.6 1.6 0 0 0-1.6-1.6zm9.477 2.779-.341.41-1.639-1.365.341-.41a.534.534 0 0 1 .751-.069h.001l.82.681a.532.532 0 0 1 .069.751v.002zm-4.029 1.505 1.64 1.365 1.365-1.64-1.639-1.365-1.365 1.64zm4.974-2.684a1.578 1.578 0 0 0-.332-.391l-.82-.682a1.6 1.6 0 0 0-2.253.206l-.724.868H5.866V5.333h17.475l-2.83 3.058a.506.506 0 0 0-.095.155l-.017.046-.007.018a.16.16 0 0 0-.01.031l-.637 3.044a.534.534 0 0 0 .671.621l2.987-.87.021-.009.018-.008.042-.019a.512.512 0 0 0 .16-.113l4.089-4.418v16.542l-3.099 3.253H13.621zm8.422 4.266h8.889v-9.333l-8.889 9.333zm3.556-1.067a.534.534 0 0 1-.377-.91l3.733-3.733a.534.534 0 0 1 .911.377v3.733a.534.534 0 0 1-.534.533H25.6zm3.2-1.066v-1.912l-1.913 1.912H28.8zm-9.067-8.533h3.733a.533.533 0 1 1 0 1.066H8.533a.533.533 0 1 1 0-1.066h3.733v-5.866a.542.542 0 0 1 .156-.378l3.2-3.2a.534.534 0 0 1 .754 0l3.2 3.2c.1.1.156.236.157.378v5.866zm-1.82-6.4L16 11.952l-1.913 1.912h3.825zm-4.58 1.067h5.334v5.333h-5.334v-5.333zm2.133-6.399h1.067v1.067h-1.067V8.532zm1.067 13.865h-1.067v1.067h1.067v-1.067z"/>
    </symbol>
    <symbol id="icon-img-1" viewBox="0 0 33 32">
      <path fill="#f0f0f0" d="m7.63 24.257 2.549-4.03-5.708-3.65-2.948 4.661 4.721 3.019H7.63z" style="fill:var(--color8, #f0f0f0)"/>
      <path fill="#3f3d56" d="M4.876 25.415h6.278v-1.219H4.876v1.219zm6.197-.079H4.958v-1.062h6.115v1.062z" style="fill:var(--color9, #3f3d56)"/>
      <path fill="#222f65" d="M10.453 25.232a.396.396 0 1 0 0-.791.396.396 0 0 0 0 .791zM9.234 25.232a.396.396 0 1 0 0-.791.396.396 0 0 0 0 .791zM8.137 25.232a.396.396 0 1 0 0-.791.396.396 0 0 0 0 .791zM6.979 25.232a.396.396 0 1 0 0-.791.396.396 0 0 0 0 .791zM5.821 25.232a.396.396 0 1 0 0-.791.396.396 0 0 0 0 .791z" style="fill:var(--color10, #222f65)"/>
      <path fill="#f0f0f0" d="M18.741 11.331V8.218h1.557V6.702h-7.619v7.619h6.513v-.745a1.056 1.056 0 0 1 1.058-1.058h.049V11.33h-1.557zM2.904.644 5.329.039l.605 2.425-2.425.605L2.904.644z" style="fill:var(--color8, #f0f0f0)"/>
      <path fill="#222f65" d="M22.065 26.39h5.12v1.036h-5.12V26.39z" style="fill:var(--color10, #222f65)"/>
      <path fill="#f0f0f0" d="M20.724 21.148h7.497v.975h-7.497v-.975z" style="fill:var(--color8, #f0f0f0)"/>
      <path fill="#3f3d56" d="M0 31.937h31.939v.061H0v-.061z" style="fill:var(--color9, #3f3d56)"/>
      <path fill="#3f3d56" d="M20.177 31.998h9.321a1.1 1.1 0 0 0 1.099-1.099V13.592a1.1 1.1 0 0 0-1.099-1.099h-9.321a1.1 1.1 0 0 0-1.099 1.099v17.307a1.1 1.1 0 0 0 1.099 1.099zM19.16 13.592a1.02 1.02 0 0 1 1.017-1.017h9.321a1.018 1.018 0 0 1 1.017 1.017v17.307a1.02 1.02 0 0 1-1.017 1.017h-9.321a1.018 1.018 0 0 1-1.017-1.017V13.592z" style="fill:var(--color9, #3f3d56)"/>
      <path fill="#3f3d56" d="M23.528 13.102a.244.244 0 1 0 .487 0 .244.244 0 0 0-.487 0zm.081 0a.163.163 0 1 1 .326 0 .163.163 0 0 1-.326 0zM24.381 13.042h1.829v.061h-1.829v-.061z" style="fill:var(--color9, #3f3d56)"/>
      <path fill="#222f65" d="M29.928 13.651v3.291a3.291 3.291 0 0 1-3.291-3.291h3.291z" style="fill:var(--color10, #222f65)"/>
      <path fill="#3f3d56" d="M19.81 30.901h10.118v-17.25H19.81v17.25zm10.036-.082h-9.954V13.733h9.954v17.086z" style="fill:var(--color9, #3f3d56)"/>
      <path d="M27.52 16.76a1.128 1.128 0 1 0 0-2.256 1.128 1.128 0 0 0 0 2.256z" opacity=".1" style="fill:var(--color3, #000)"/>
      <path fill="#222f65" d="M27.337 16.882a1.128 1.128 0 1 0 0-2.256 1.128 1.128 0 0 0 0 2.256z" style="fill:var(--color10, #222f65)"/>
      <path fill="#3f3d56" d="M20.236 14.322h1.585v.549h-1.585v-.549zM21.09 19.807h1.585v.549H21.09v-.549zM21.15 21.941h7.558v-1.036H21.15v1.036zm7.476-.08h-7.394v-.877h7.394v.877z" style="fill:var(--color9, #3f3d56)"/>
      <path fill="#f0f0f0" d="M20.724 24.257h7.497v.975h-7.497v-.975z" style="fill:var(--color8, #f0f0f0)"/>
      <path fill="#3f3d56" d="M21.09 22.855h1.585v.549H21.09v-.549zM21.15 25.049h7.558v-1.036H21.15v1.036zm7.476-.08h-7.394v-.877h7.394v.877zM22.309 27.183h5.181v-1.097h-5.181v1.097zm5.098-.079H22.39v-.94h5.017v.94z" style="fill:var(--color9, #3f3d56)"/>
      <path fill="#222f65" d="M28.404 21.544a.397.397 0 0 1-.701.253.396.396 0 1 1 .691-.346.422.422 0 0 1 .011.093z" style="fill:var(--color10, #222f65)"/>
      <path d="M28.404 21.522c0 .177-.108.334-.269.394s-.342.009-.451-.127a.419.419 0 0 1 .258-.493.399.399 0 0 1 .451.127.412.412 0 0 1 .011.099z" opacity=".1" style="fill:var(--color3, #000)"/>
      <path fill="#222f65" d="M28.19 22.123a.396.396 0 1 0 0-.791.396.396 0 0 0 0 .791zM28.404 24.592a.397.397 0 0 1-.701.253.396.396 0 1 1 .691-.346.422.422 0 0 1 .011.093z" style="fill:var(--color10, #222f65)"/>
      <path d="M28.404 24.63c0 .177-.108.334-.269.394s-.342.009-.451-.127a.419.419 0 0 1 .258-.493.399.399 0 0 1 .451.127.412.412 0 0 1 .011.099z" opacity=".1" style="fill:var(--color3, #000)"/>
      <path fill="#222f65" d="M28.19 25.232a.396.396 0 1 0 0-.791.396.396 0 0 0 0 .791z" style="fill:var(--color10, #222f65)"/>
      <path fill="#f0f0f0" d="M19.2 8.653h2.133v2.133H19.2V8.653z" style="fill:var(--color8, #f0f0f0)"/>
      <path fill="#3f3d56" d="M27.002 9.689a.488.488 0 1 0 .976 0 .488.488 0 0 0-.976 0zm.081 0a.406.406 0 1 1 .813 0 .406.406 0 0 1-.813 0zM15.665 17.064h1.036v-1.036h-1.036v1.036zm.956-.079h-.877v-.877h.877v.877zM31.878 25.049h1.036v-1.036h-1.036v1.036zm.957-.08h-.877v-.877h.877v.877z" style="fill:var(--color9, #3f3d56)"/>
      <path fill="#2f2e41" d="m11.886 17.912 1.808.981.585-1.093a.887.887 0 0 0-.358-1.204c-.448-.243-1-.168-1.367.187a1.186 1.186 0 0 0-.22.292l-.448.837z" style="fill:var(--color11, #2f2e41)"/>
      <path fill="#ffb8b8" d="m14.629 28.894-.118 1.395-.441.063-.294-1.585.853.127z" style="fill:var(--color12, #ffb8b8)"/>
      <path fill="#2f2e41" d="M13.919 30.39s.584-.313.707-.063c0 0-.092.751.276.845s.522.751 0 .813c-.522.063-.86-.125-1.044-.125s0-.657 0-.657l.061-.813z" style="fill:var(--color11, #2f2e41)"/>
      <path fill="#ffb8b8" d="m10.91 28.894.118 1.395.441.063.294-1.585-.853.127z" style="fill:var(--color12, #ffb8b8)"/>
      <path fill="#2f2e41" d="M11.681 30.39s-.584-.313-.707-.063c0 0 .092.751-.276.845s-.522.751 0 .813c.522.063.86-.125 1.044-.125s0-.657 0-.657l-.061-.813z" style="fill:var(--color11, #2f2e41)"/>
      <path fill="#ffb8b8" d="M13.379 18.162a.823.823 0 1 0 0-1.646.823.823 0 0 0 0 1.646z" style="fill:var(--color12, #ffb8b8)"/>
      <path fill="#ffb8b8" d="m10.91 18.881.64 1.018.761-.062 1.249.093s.118-.239.214-.471c.053-.116.093-.237.121-.362.03-.216-.396-.432-.396-.432l-.045-.01a2 2 0 0 1-.157-.045c-.142-.049-.312-.131-.346-.253-.061-.216.396-.524.396-.524l-.548-.524s-.487.685-1.079.841a1.2 1.2 0 0 1-.104.022l-.005.001c-.64.092-.701.709-.701.709z" style="fill:var(--color12, #ffb8b8)"/>
      <path fill="#ffb8b8" d="m11.231 18.649-.353.277s-.289 1.322-.193 1.69-.032.707-.032.768c0 .061-.289 2.367-.289 2.367s-.577 1.229.032 1.106.385-1.352.385-1.352l.738-2.151v-1.813l-.289-.891zM13.656 18.893l.249.183.125 2.56.935 2.194s.686 1.067.249 1.097-.717-1.097-.717-1.097l-.842-2.103-.125-2.042.125-.792z" style="fill:var(--color12, #ffb8b8)"/>
      <path fill="#2f2e41" d="M12.113 19.015s.615.431 1.599.277c0 0 .277.555.123.863s.184 1.048.246 1.14c.062.092.769 2.003 1.014 4.067s.922 3.482.338 3.667c-.584.185-1.783.401-1.906.216s-.307-4.776-.307-4.776l-.338 1.756s.461 2.989.123 3.051-2.459-.123-2.398-.493c.062-.37.676-2.311.676-2.311s-.031-3.883.584-4.622c0 0 .246-.401-.092-.924s-.307-1.356-.307-1.356.246 0 .646-.555z" style="fill:var(--color11, #2f2e41)"/>
      <path fill="#2f2e41" d="m11.581 18.183.492 1.137.117-.061-.509-1.097-.1.021zM13.288 18.649l.393.853.094-.008-.032-.145-.295-.655a2.012 2.012 0 0 1-.161-.045zM12.031 17.98c.06.199.231.342.433.362s.396-.086.493-.269c-.388-.521-.055-.848.575-1.095a.528.528 0 0 0-.054-.574 1.158 1.158 0 0 0-.962.325l-.448.852a.522.522 0 0 0-.037.399z" style="fill:var(--color11, #2f2e41)"/>
      <path fill="#ffb8b8" d="M12.952 17.613c.05 0 .091-.082.091-.183s-.041-.183-.091-.183c-.05 0-.091.082-.091.183s.041.183.091.183z" style="fill:var(--color12, #ffb8b8)"/>
      <path fill="#2f2e41" d="m13.288 17.133.927.419.17-.374a.88.88 0 0 0-.179-.373l-.638-.288-.28.617z" style="fill:var(--color11, #2f2e41)"/>
      <path fill="#222f65" d="M15.512 25.354a.396.396 0 1 0 0-.791.396.396 0 0 0 0 .791z" style="fill:var(--color10, #222f65)"/>
      <path fill="#ff6584" d="M2.347 27.792a.274.274 0 1 0 0-.549.274.274 0 0 0 0 .549z" style="fill:var(--color13, #ff6584)"/>
      <path fill="#3f3d56" d="M3.596 28.95h.061v3.048h-.061V28.95z" style="fill:var(--color9, #3f3d56)"/>
      <path fill="#3f3d56" d="M3.657 29.316a.427.427 0 1 0 0-.854.427.427 0 0 0 0 .854zM3.596 30.779s-.06-1.297-1.28-1.146l1.28 1.146z" style="fill:var(--color9, #3f3d56)"/>
    </symbol>
    <symbol id="icon-img-2" viewBox="0 0 48 32">
      <path fill="#f2f2f2" d="M10.002 13.913c-2.453.011-4.45.047-4.45.047s2.373-3.12 4.441-1.964c2.067 1.156 4.442 1.923 4.442 1.923s-1.98-.018-4.434-.007z" style="fill:var(--color14, #f2f2f2)"/>
      <path fill="#ff6584" d="M37.451 14.869a.505.505 0 1 0 0-1.01.505.505 0 0 0 0 1.01z" style="fill:var(--color13, #ff6584)"/>
      <path fill="#3f3d56" d="m33.715 22.37 3.835-4.403.118.103-3.835 4.403-.118-.103z" style="fill:var(--color9, #3f3d56)"/>
      <path fill="#3f3d56" d="M37.653 18.805a.808.808 0 1 0 0-1.617.808.808 0 0 0 0 1.617zM35.259 20.723s1.551-1.976-.433-3.331l.433 3.331zM9.547 24.196c2.841 5.268 8.872 7.53 8.872 7.53s1.424-6.28-1.418-11.549c-2.841-5.268-8.872-7.53-8.872-7.53s-1.424 6.28 1.418 11.549z" style="fill:var(--color9, #3f3d56)"/>
      <path fill="#111b47" d="M11.47 22.486c5.129 3.095 7.105 9.241 7.105 9.241s-6.341 1.129-11.47-1.965C1.976 26.667.001 20.521.001 20.521s6.341-1.13 11.47 1.965z" style="fill:var(--color15, #111b47)"/>
      <path fill="#3f3d56" d="M31.818 22.513c-5.157 3.052-7.187 9.188-7.187 9.188s6.331 1.187 11.488-1.866c5.157-3.052 7.187-9.188 7.187-9.188s-6.331-1.187-11.488 1.866z" style="fill:var(--color9, #3f3d56)"/>
      <path fill="#111b47" d="M33.69 24.38c-2.888 5.241-8.937 7.448-8.937 7.448s-1.368-6.29 1.52-11.53c2.888-5.241 8.937-7.448 8.937-7.448s1.368 6.29-1.52 11.53z" style="fill:var(--color15, #111b47)"/>
      <path fill="#2f2e41" d="M23.206 10.027a1.577 1.577 0 0 1-.196-2.124 1.576 1.576 0 1 0 2.244 2.206c.03-.033.057-.067.084-.101a1.574 1.574 0 0 1-2.132.019z" style="fill:var(--color11, #2f2e41)"/>
      <path fill="#2f2e41" d="M21.754 11.134a3.281 3.281 0 1 0 0-6.562 3.281 3.281 0 0 0 0 6.562z" style="fill:var(--color11, #2f2e41)"/>
      <path fill="#ffb8b8" d="m20.819 12.045.098-.253-1.79 1.498-2.164 1.206s-1.102-4.202-1.18-4.28-1.495-3.035-2.125-1.634 1.22 2.218 1.22 2.218.059 5.117 1.948 5.078 4.23-1.732 4.269-1.887-.275-1.945-.275-1.945zM21.35 11.235a1.968 1.968 0 1 0 0-3.936 1.968 1.968 0 0 0 0 3.936z" style="fill:var(--color12, #ffb8b8)"/>
      <path fill="#ffb8b8" d="M21.691 10.705s.511.663.354.741-1.062.117-1.612.78.668 2.34.668 2.34l4.64-3.081-1.887-.624s-1.298-.702-1.258-1.443l-.904 1.287z" style="fill:var(--color12, #ffb8b8)"/>
      <path fill="#2f2e41" d="M27.962 31.929H22.75c-.295-2.154-.432-4.128-.432-4.128s-.076 1.985-.279 4.128h-6.696c.949-6.344 5.449-13.222 5.449-13.222s.039-.937.157-1.093c.117-.156-.665-.195-1.017-1.366-.215-.715-.022-1.183.162-1.438.063-.092.141-.173.23-.241 0 0 .078-.819 0-.937-.01-.015.067-.069.21-.151.119-.069.284-.157.48-.258 1.127-.583 3.31-1.615 4.057-1.967l.259-.122 1.33.468c1.056.351 1.056 2.576 1.056 2.576l-.06.091-2.522 3.813c.235.156-.234 1.132-.234 1.132s.669.959 1.213 2.422c.308.814.517 1.662.625 2.526a8.57 8.57 0 0 1 .04 1.687c-.145 1.88.499 4.166 1.184 6.08z" style="fill:var(--color11, #2f2e41)"/>
      <path fill="#ffb8b8" d="M26.645 11.783a.337.337 0 0 0-.484.183c-.116.324-.235.999-.192 2.403.077 2.582.116 4.342.116 4.342v3.911s-1.701 3.755-.773 3.755 1.585-2.973 1.585-2.973.851-4.498.58-5.28c0 0 .763-5.404-.832-6.34z" style="fill:var(--color12, #ffb8b8)"/>
      <path fill="#2f2e41" d="M21.148 8.711c.92 0 1.666-.52 1.666-1.161s-.746-1.161-1.666-1.161c-.92 0-1.666.52-1.666 1.161s.746 1.161 1.666 1.161zM23.823 6.591a1.615 1.615 0 1 0 0-3.23 1.615 1.615 0 0 0 0 3.23z" style="fill:var(--color11, #2f2e41)"/>
      <path fill="#2f2e41" d="M24.934 6.125c-.84 0-1.539-.631-1.609-1.452a1.457 1.457 0 0 0-.006.132c0 .875.723 1.584 1.615 1.584s1.615-.709 1.615-1.584a1.44 1.44 0 0 0-.006-.132 1.602 1.602 0 0 1-1.609 1.452z" style="fill:var(--color11, #2f2e41)"/>
      <path fill="#ffb8b8" d="M23.257 8.915c.074-.018.101-.168.06-.336s-.132-.29-.206-.273-.101.168-.06.336c.04.168.132.29.206.273z" style="fill:var(--color12, #ffb8b8)"/>
      <path fill="#f2f2f2" d="M23.218 8.913c.056 0 .101-.045.101-.101s-.045-.101-.101-.101c-.056 0-.101.045-.101.101s.045.101.101.101z" style="fill:var(--color14, #f2f2f2)"/>
      <path fill="#3f3d56" d="M4.038 14.919a.656.656 0 1 0 1.313 0 .656.656 0 0 0-1.313 0zm.109 0a.547.547 0 1 1 1.094 0 .547.547 0 0 1-1.094 0zM30.688 10.932h1.413V9.519h-1.413v1.413zm1.304-.109h-1.196V9.627h1.196v1.196z" style="fill:var(--color9, #3f3d56)"/>
      <path fill="#f2f2f2" d="M44.021 18.254c-2.453.011-4.45.047-4.45.047s2.373-3.12 4.441-1.964c2.067 1.156 4.442 1.923 4.442 1.923s-1.98-.018-4.434-.007zM36.45 7.654c-2.453.011-4.45.047-4.45.047s2.373-3.12 4.441-1.964c2.067 1.156 4.442 1.923 4.442 1.923s-1.98-.018-4.434-.007zM13.26 9.027 7.595 6.102a.792.792 0 0 1-.34-1.065L8.59 2.431a.318.318 0 0 1 .19-.158L13.245.966a.725.725 0 0 1 .889.459l1.467 4.201a.823.823 0 0 1-.044.645l-1.236 2.412a.784.784 0 0 1-1.061.341z" style="fill:var(--color14, #f2f2f2)"/>
      <path d="M13.461 8.062 7.753 5.615c-.184-.095-.011.051.083-.134l.718-2.929 6.992 3.611-1.768 2.195c-.095.185-.133-.201-.317-.296z" opacity=".1" style="fill:var(--color3, #000)"/>
      <path fill="#111b47" d="M8.697 6.353A.826.826 0 0 1 8.34 5.24l1.922-3.738a.826.826 0 0 1 1.113-.357l3.738 1.922a.826.826 0 0 1 .357 1.113l-1.922 3.738a.826.826 0 0 1-1.113.357L8.697 6.353z" style="fill:var(--color15, #111b47)"/>
      <path d="M14.637 5.742 13.169 8.61 7.975 5.926l1.468-2.868 1.952 2.603 3.243.081z" opacity=".1" style="fill:var(--color3, #000)"/>
      <path fill="#f2f2f2" d="m11.331 5.85-2.52-3.337c-.032-.042-.083-.065-.135-.06s-.099.036-.123.082L7.119 5.317a.473.473 0 0 0 .206.641l6.248 3.205a.475.475 0 0 0 .643-.206l1.409-2.734a.185.185 0 0 0-.161-.271l-4.133-.102zM10.843 1.476l1.456.749-.106.206-1.456-.749.106-.206zM10.339 2.166l4.325 2.224-.06.118-4.325-2.224.06-.118zM10.135 2.563l4.325 2.224-.061.118-4.325-2.224.061-.118z" style="fill:var(--color14, #f2f2f2)"/>
      <path fill="#f2f2f2" d="m9.931 2.96 4.325 2.224-.061.118L9.87 3.078l.061-.118z" style="fill:var(--color14, #f2f2f2)"/>
      <path fill="#fff" d="M11.414 1.269a.678.678 0 1 0-1.206-.62.678.678 0 1 0 1.206.62z" style="fill:var(--color2, #fff)"/>
      <path fill="#57b894" d="M10.083.569a.808.808 0 1 1 1.437.739.808.808 0 0 1-1.437-.739zm.195.119.179.557 1.004-.321-.05-.156-.848.272-.129-.401-.156.05z" style="fill:var(--color16, #57b894)"/>
    </symbol>
    <symbol id="icon-img-3" viewBox="0 0 44 32">
      <path fill="#f2f2f2" d="M44.422 19.207c0 5.565-3.315 7.509-7.404 7.509s-7.404-1.943-7.404-7.509c0-5.565 7.404-12.646 7.404-12.646s7.404 7.08 7.404 12.646z" style="fill:var(--color14, #f2f2f2)"/>
      <path fill="#3f3d56" d="m36.767 25.883.075-4.662 3.137-5.768-3.125 5.037.034-2.096 2.162-4.173-2.153 3.618.061-3.77 2.315-3.322-2.305 2.729.038-6.914-.239 9.152.02-.378-2.354-3.621 2.316 4.346-.219 4.211-.007-.112-2.713-3.811 2.705 4.205-.027.527-.005.008.002.043-.556 10.683h.743l.089-5.518 2.698-4.195-2.692 3.78z" style="fill:var(--color9, #3f3d56)"/>
      <path fill="#f2f2f2" d="M4.031 28.477c0 1.499-.902 2.023-2.015 2.023S.001 29.977.001 28.477c0-1.499 2.015-3.407 2.015-3.407s2.015 1.907 2.015 3.407z" style="fill:var(--color14, #f2f2f2)"/>
      <path fill="#3f3d56" d="m1.94 30.212.02-1.261.836-1.559-.833 1.362.009-.567.576-1.128-.574.978.016-1.019.617-.898-.615.738.01-1.869-.064 2.474.005-.102-.628-.979.618 1.175-.058 1.138-.002-.03-.724-1.03.721 1.137-.007.142-.001.002.001.012-.148 2.888h.198l.024-1.492.72-1.134-.718 1.022z" style="fill:var(--color9, #3f3d56)"/>
      <path fill="#111b47" d="M40.555 30.519c0 1.022-.608 1.379-1.357 1.379l-.052-.001a1.733 1.733 0 0 1-.103-.005c-.677-.048-1.202-.423-1.202-1.374 0-.984 1.257-2.225 1.352-2.317l.005-.005s1.357 1.3 1.357 2.323z" style="fill:var(--color15, #111b47)"/>
      <path fill="#3f3d56" d="m39.133 31.742.502-.694-.504.77-.001.08c-.035-.001-.07-.002-.104-.005l.054-1.023v-.008l.001-.001.005-.097-.505-.772.507.699.001.02.041-.773-.432-.798.438.662.043-1.602v-.006.005l-.007 1.263.43-.501-.432.61-.011.692.402-.664-.404.766-.006.385.583-.924-.585 1.059-.014.856zM25.937 7.302h.117c.104 0 .189.084.189.189v3.489a.189.189 0 0 1-.189.189h-.117a.189.189 0 0 1-.189-.189V7.491c0-.104.084-.189.189-.189zM10.324 4.258c.068 0 .123.055.123.123v.987a.123.123 0 1 1-.246 0v-.987c0-.068.055-.123.123-.123zM10.34 6.561h.05c.077 0 .139.062.139.139v1.942a.139.139 0 0 1-.139.139h-.05a.139.139 0 0 1-.139-.139V6.7c0-.077.062-.139.139-.139zM10.324 9.605c.068 0 .123.055.123.123v1.974a.123.123 0 1 1-.246 0V9.728c0-.068.055-.123.123-.123z" style="fill:var(--color9, #3f3d56)"/>
      <path fill="#3f3d56" d="M13.301.063h9.757a2.936 2.936 0 0 1 2.936 2.936V28.88a2.936 2.936 0 0 1-2.936 2.936h-9.757a2.936 2.936 0 0 1-2.936-2.936V2.999A2.936 2.936 0 0 1 13.301.063z" style="fill:var(--color9, #3f3d56)"/>
      <path fill="#e6e8ec" d="M16.823 1.05h1.81a.206.206 0 1 1 0 .412h-1.81a.206.206 0 1 1 0-.412zM19.414 1.461a.248.248 0 0 0 0-.494.248.248 0 0 0 0 .494z" style="fill:var(--color17, #e6e8ec)"/>
      <path fill="#fff" d="M25.09 2.127v27.626c0 .686-.558 1.241-1.245 1.241H12.597a1.243 1.243 0 0 1-1.245-1.241V2.127A1.247 1.247 0 0 1 12.597.885h1.683v.216c0 .564.459 1.022 1.025 1.022h5.72c.566 0 1.025-.458 1.025-1.022V.885h1.794a1.243 1.243 0 0 1 1.245 1.242z" style="fill:var(--color2, #fff)"/>
      <path fill="#f2f2f2" d="M11.352 7.302H25.09v15.794H11.352V7.302z" style="fill:var(--color14, #f2f2f2)"/>
      <path fill="#ff6584" d="m12.339 25.235-.072-.064c-.254-.232-.422-.382-.422-.57a.268.268 0 0 1 .271-.272c.086 0 .167.038.222.104a.295.295 0 0 1 .222-.104.27.27 0 0 1 .271.272c0 .187-.168.338-.422.57l-.072.064z" style="fill:var(--color13, #ff6584)"/>
      <path fill="#f2f2f2" d="m14.889 25.032.143.038c.052-.14.174-.247.327-.287s.317-.006.438.09l-.218.197h.544v-.494l-.219.196c-.159-.13-.378-.177-.582-.125s-.367.197-.433.384z" style="fill:var(--color14, #f2f2f2)"/>
      <path fill="#111b47" d="M12.216 6.15a.617.617 0 1 0 0-1.233.617.617 0 0 0 0 1.233zM13.326 5.163h5.923v.74h-5.923v-.74z" style="fill:var(--color15, #111b47)"/>
      <path fill="#f2f2f2" d="M11.764 26.304h5.923v.74h-5.923v-.74zM11.846 27.867h12.422v.74H11.846v-.74zM14.314 25.235l-.152-.27c.075-.183.006-.395-.162-.496s-.383-.061-.505.094-.113.378.02.523.351.167.511.053l.288.098z" style="fill:var(--color14, #f2f2f2)"/>
      <path fill="#2f2e41" d="M16.992 10.958c-.469.097-.881.378-1.145.782s-.358.897-.262 1.371l.373 1.84.417-.086.029-.195.087.171 2.537-.525.029-.195.087.171.351-.072-.373-1.84c-.096-.474-.375-.89-.774-1.157s-.888-.362-1.357-.265z" style="fill:var(--color11, #2f2e41)"/>
      <path fill="#9f616a" d="m20.207 16.597 2.168 1.332-.271.643-2.032-.964.136-1.01z" style="fill:var(--color18, #9f616a)"/>
      <path fill="#111b47" d="M17.432 18.131s-4.402 0-5.128 1.132-.136 2.717 2.133 3.079c2.269.362 9.167.543 9.712-.815s.136-2.128.136-2.128-2.36-1.63-6.853-1.268z" style="fill:var(--color15, #111b47)"/>
      <path fill="#111b47" d="m21.273 19.229 2.418.906s1.004-.725.502-1.54-2.783-5.527-2.783-5.527-.639-.906.183-1.404c.821-.498 1.141.317 1.141.317s-.046.181.274.045c.319-.136.913.317.593 1.042s-.547.906.137.861c.247-.016.465-.192.641-.41.339-.418.188-.755.162-1.291-.044-.918-.116-1.517-.347-1.878-.319-.498-.776-.906-1.962-.68s-2.92 1.359-2.509 2.99c.411 1.631 1.323 3.443 1.323 3.443s.639 2.537.228 3.126z" style="fill:var(--color15, #111b47)"/>
      <path d="M21.306 19.211c-.392.108-.884.161-1.413.177-.924.029-1.964-.053-2.795-.146-.897-.1-1.55-.213-1.55-.213.303-.283.769-.396 1.317-.436.68-.051 1.486.007 2.265-.018.287-.01.574.012.857.064.859.164 1.32.571 1.32.571z" opacity=".1" style="fill:var(--color3, #000)"/>
      <path fill="#9f616a" d="M17.398 14.294a1.275 1.275 0 1 0 0-2.55 1.275 1.275 0 0 0 0 2.55z" style="fill:var(--color18, #9f616a)"/>
      <path fill="#9f616a" d="M17.214 14.056s.224.868 0 .914-.761.274-.761.274l.672.274 1.254 1.188 1.075.548.537-.183v-1.005l-.806-1.28s-.537.183-.672-.411-.403-.823-.403-.823l-.895.503z" style="fill:var(--color18, #9f616a)"/>
      <path fill="#9f616a" d="M16.893 15.281h-.544s-.953.316-1.497 1.037-1.406 1.443-1.406 1.443-.59.812-.272 1.939c.318 1.127.771 1.939 1.179 1.713s-.59-1.849-.59-1.849l.272-.992s1.406-1.623 1.996-1.578.635.541.635.541l1.27.361.408-.857-.227-.902-1.225-.857z" style="fill:var(--color18, #9f616a)"/>
      <path fill="#3f3d56" d="M20.136 18.18a1.657 1.657 0 0 0-.185.468 3.692 3.692 0 0 0-.093.741c-.919.028-1.954-.053-2.78-.144a31.71 31.71 0 0 1-.232-.642c-.212-.608-.408-1.229-.408-1.321 0-.18.947.135 1.173.09s.316-.764 0-1.123c-.316-.36-1.24-.966-1.24-.966l.316-.09s.699.517 2.142 1.37.857-.494.857-.494l-.834-1.281h.361s.699 1.191 1.06 1.73.225 1.078-.135 1.662z" style="fill:var(--color9, #3f3d56)"/>
      <path fill="#2f2e41" d="m15.989 11.818 2.296-.47.288 1.409-2.296.47-.288-1.409z" style="fill:var(--color11, #2f2e41)"/>
      <path fill="#3f3d56" d="M23.239 11.579a.7.7 0 1 0 0-1.398.7.7 0 0 0 0 1.398z" style="fill:var(--color9, #3f3d56)"/>
      <path fill="#fff" d="M23.239 11.25a.37.37 0 1 0 0-.74.37.37 0 0 0 0 .74z" style="fill:var(--color2, #fff)"/>
      <path fill="#111b47" d="m3.247 18.654-.047.356a6.26 6.26 0 0 0-.041.362c-.029.403.025.808.011 1.212-.011.311-.062.622-.037.932.022.274.102.541.181.805l.114.378a.074.074 0 0 0 .1.063l.503-.044c-.032-.144-.068-.295-.085-.441-.014-.116-.022-.233-.03-.349-.027-.363-.057-.726-.087-1.089l-.053-.637c-.023-.276-.046-.555-.118-.823a1.633 1.633 0 0 0-.41-.725z" style="fill:var(--color15, #111b47)"/>
      <path d="m3.247 18.654-.047.356a6.26 6.26 0 0 0-.041.362c-.029.403.025.808.011 1.212-.011.311-.062.622-.037.932.022.274.102.541.181.805l.114.378a.074.074 0 0 0 .1.063l.503-.044c-.032-.144-.068-.295-.085-.441-.014-.116-.022-.233-.03-.349-.027-.363-.057-.726-.087-1.089l-.053-.637c-.023-.276-.046-.555-.118-.823a1.633 1.633 0 0 0-.41-.725z" opacity=".1" style="fill:var(--color3, #000)"/>
      <path fill="#3f3d56" d="M4.183 30.947a1.465 1.465 0 0 0-.076.178 1.892 1.892 0 0 0-.074.525.252.252 0 0 0 .009.102c.024.064.095.096.161.114.276.074.566.004.851-.021.279-.025.563-.007.837-.069a.443.443 0 0 0 .116-.04.36.36 0 0 0 .146-.191.266.266 0 0 0 .017-.063c.009-.093-.072-.174-.161-.205s-.185-.026-.278-.035a.876.876 0 0 1-.775-.731c-.003-.02-.46-.008-.508.018-.056.031-.09.108-.122.16a3.62 3.62 0 0 0-.143.259z" style="fill:var(--color9, #3f3d56)"/>
      <path d="M4.183 30.947a1.465 1.465 0 0 0-.076.178 1.892 1.892 0 0 0-.074.525.252.252 0 0 0 .009.102c.024.064.095.096.161.114.276.074.566.004.851-.021.279-.025.563-.007.837-.069a.443.443 0 0 0 .116-.04.36.36 0 0 0 .146-.191.266.266 0 0 0 .017-.063c.009-.093-.072-.174-.161-.205s-.185-.026-.278-.035a.876.876 0 0 1-.775-.731c-.003-.02-.46-.008-.508.018-.056.031-.09.108-.122.16a3.62 3.62 0 0 0-.143.259z" opacity=".1" style="fill:var(--color3, #000)"/>
      <path fill="#3f3d56" d="M4.923 30.947a1.465 1.465 0 0 0-.076.178 1.892 1.892 0 0 0-.074.525.252.252 0 0 0 .009.102c.024.064.095.096.161.114.276.074.566.004.851-.021.279-.025.563-.007.837-.069a.443.443 0 0 0 .116-.04.36.36 0 0 0 .146-.191.266.266 0 0 0 .017-.063c.009-.093-.072-.174-.161-.205s-.185-.026-.278-.035a.876.876 0 0 1-.775-.731c-.003-.02-.46-.008-.508.018-.056.031-.09.108-.122.16a3.62 3.62 0 0 0-.143.259z" style="fill:var(--color9, #3f3d56)"/>
      <path fill="#2f2e41" d="M6.828 26.465c.006.909-.256 1.797-.563 2.651-.122.338-.25.673-.387 1.006-.081.197-.172.415-.085.61-.249-.096-.504-.152-.767-.108.1-.206.091-.446.095-.675.009-.311.042-.621.099-.927a5.19 5.19 0 0 1 .449-1.341 1 1 0 0 0 .087-.283 1.81 1.81 0 0 0-.037-.652 3.92 3.92 0 0 0-.537-1.329l-.003.027a3.922 3.922 0 0 1-.068.402c-.059.282-.127.563-.117.846.011.3-.007.601-.055.897-.015.116-.045.23-.089.339-.029.065-.066.126-.089.194a.928.928 0 0 0-.035.24c-.034.684 0 1.56.138 2.231a1.278 1.278 0 0 0-.671.154c-.167-.477-.274-1.155-.354-1.657a4.96 4.96 0 0 1 .054-1.785c.039-.196.054-.396.044-.595-.018-.397-.115-.786-.211-1.172l-.147-.587-.209-.837c-.046-.186-.093-.375-.078-.566.01-.105.032-.208.065-.308.104-.34.26-.661.461-.952.802.046 1.614-.03 2.416-.093a.158.158 0 0 1 .114.02.168.168 0 0 1 .046.104l.301 1.722c.049.24.077.483.086.728.001.244-.038.487-.029.73.012.328.074.638.076.967z" style="fill:var(--color11, #2f2e41)"/>
      <path d="M5.183 25.497a3.767 3.767 0 0 1-.069.396c-.178-.3-.369-.593-.533-.901-.042-.079-.082-.16-.123-.24l-.121-.241a3.407 3.407 0 0 1-.066-.136.95.95 0 0 1-.076-.209c.06-.011.206.146.25.187a3.5 3.5 0 0 1 .256.275c.097.107.186.22.266.34.102.163.175.341.215.528z" opacity=".1" style="fill:var(--color3, #000)"/>
      <path fill="#efb7b9" d="M5.923 17.142s-.457.737-.372.891-1.438-.137-1.438-.137.829-.737.744-1.046c-.085-.309 1.066.291 1.066.291z" style="fill:var(--color19, #efb7b9)"/>
      <path fill="#efb7b9" d="M5.47 17.338a1.028 1.028 0 1 0 0-2.055 1.028 1.028 0 0 0 0 2.055z" style="fill:var(--color19, #efb7b9)"/>
      <path fill="#111b47" d="M5.912 17.849a1.049 1.049 0 0 0-.431-.346 1.609 1.609 0 0 0-.306-.075l-.409-.072c-.1-.018-.208-.034-.301.007a.472.472 0 0 0-.128.093c-.142.131-.28.275-.458.35-.049.021-.1.036-.149.057a.856.856 0 0 0-.433.462c-.089.209-.091.434-.084.661 0 .078.007.156.023.233.021.073.047.144.078.213.057.148.104.299.142.452.106.403.194.811.264 1.222a.456.456 0 0 0 .052.169.603.603 0 0 0 .141.135.877.877 0 0 1 .119.117c.018.018.03.04.037.064.013.061-.041.113-.085.157a.763.763 0 0 0-.192.331.133.133 0 0 0-.03.092.162.162 0 0 1 .01.072.168.168 0 0 1-.039.06.224.224 0 0 0-.043.18 2.92 2.92 0 0 0 1.004.234c.085.004.17.004.254.014.06.007.119.02.18.027.087.008.175.01.263.007.457-.009.926-.021 1.346-.201.04-.214-.046-.431-.099-.642-.085-.335-.106-.682-.169-1.022-.043-.233-.106-.461-.142-.695s-.044-.476.02-.704c.057-.202.075-.407.134-.608s.101-.419.034-.618c-.083-.246-.34-.441-.602-.428z" style="fill:var(--color15, #111b47)"/>
      <path fill="#2f2e41" d="M6.403 15.816c.05-.18-.048-.367-.166-.513-.127-.157-.29-.298-.49-.338-.162-.032-.331.007-.496-.006-.146-.011-.287-.063-.432-.081a1.376 1.376 0 0 0-.395.015 1.49 1.49 0 0 0-.36.099c-.439.191-.696.662-.755 1.13s.045.938.149 1.398l.094.416c.098.433.196.868.222 1.31s-.023.897-.208 1.301a2.813 2.813 0 0 0 1.309-1.455c.067-.171.116-.349.19-.517.064-.145.145-.282.201-.43a1.37 1.37 0 0 0 .09-.522c-.003-.134-.026-.267-.022-.401s.039-.273.133-.37c.084-.086.203-.127.31-.181.17-.085.318-.207.434-.355.068-.087.072-.124.089-.224.017-.097.078-.18.104-.275z" style="fill:var(--color11, #2f2e41)"/>
      <path fill="#efb7b9" d="M6.408 23.418c.01.106-.009.215.014.319.017.078.058.149.082.226.024.089.036.18.036.272.003.077-.002.171-.071.207-.03.016-.066.016-.097.029s-.058.051-.04.08c.015.024.049.024.077.03s.059.035.042.058a.047.047 0 0 1-.025.016c-.029.009-.056.022-.08.038s-.037.048-.033.078c.003.014.013.026.027.033s.029.006.042-.001a.212.212 0 0 0-.02.085c.109.047.232-.014.334-.074.044-.025.087-.052.129-.082a.642.642 0 0 0 .248-.545 2.429 2.429 0 0 0-.087-.421c-.029-.092-.07-.18-.104-.27-.074-.192-.121-.393-.187-.587-.002-.019-.012-.036-.027-.047s-.034-.016-.053-.013a.786.786 0 0 0-.222.02c-.044.013-.116.041-.136.087-.018.042.012.079.031.114a.943.943 0 0 1 .119.346z" style="fill:var(--color19, #efb7b9)"/>
      <path d="M6.36 18.325a.328.328 0 0 1 .053.075c.141.263.143.579.15.879.008.338.026.676.044 1.014l.054 1.01c.005.097.01.193.024.289.064.016.066.101.059.167-.045.412-.159.837-.04 1.234a.13.13 0 0 0 .028.055.32.32 0 0 0-.184-.003c-.059.013-.116.035-.175.049-.075.018-.16.025-.211.084a4.222 4.222 0 0 1-.138-.545c-.028-.168-.036-.342-.102-.498-.027-.063-.063-.121-.096-.181-.173-.315-.257-.672-.34-1.024a1.528 1.528 0 0 1-.026-.509 1.85 1.85 0 0 0 .021-.234 1.84 1.84 0 0 0-.032-.246 1.684 1.684 0 0 1 .048-.713c.062-.215.116-.441.246-.621s.401-.28.619-.283z" opacity=".1" style="fill:var(--color3, #000)"/>
      <path fill="#111b47" d="M6.36 18.243a.328.328 0 0 1 .053.075c.141.263.143.579.15.879.008.338.026.676.044 1.014l.054 1.01c.005.097.01.193.024.289.064.016.066.101.059.167-.045.412-.159.837-.04 1.234a.13.13 0 0 0 .028.055.32.32 0 0 0-.184-.003c-.059.013-.116.035-.175.049-.075.018-.16.025-.211.084a4.222 4.222 0 0 1-.138-.545c-.028-.168-.036-.342-.102-.498-.027-.063-.063-.121-.096-.181-.173-.315-.257-.672-.34-1.024a1.528 1.528 0 0 1-.026-.509 1.85 1.85 0 0 0 .021-.234 1.84 1.84 0 0 0-.032-.246 1.684 1.684 0 0 1 .048-.713c.062-.215.116-.441.246-.621s.401-.28.619-.283z" style="fill:var(--color15, #111b47)"/>
      <path d="M6.227 15.247c-.126-.158-.289-.3-.489-.34-.162-.032-.33.007-.494-.006-.146-.011-.286-.063-.431-.082a1.37 1.37 0 0 0-.394.015 1.495 1.495 0 0 0-.359.099 1.03 1.03 0 0 0-.177.1c.102-.039.209-.066.317-.082a1.37 1.37 0 0 1 .394-.015c.145.019.285.071.431.082.165.013.332-.026.494.006.199.04.362.182.489.34.118.147.216.335.166.516-.026.095-.087.179-.104.277-.017.101-.021.138-.089.226-.087.113-.193.21-.312.288l.098-.047c.169-.086.317-.208.433-.358.068-.088.071-.125.089-.226.017-.098.078-.181.104-.277.05-.181-.048-.369-.166-.516zM5.458 16.806a.537.537 0 0 1 .057-.05c-.098.047-.201.089-.276.166-.094.097-.128.238-.132.373s.019.269.022.404c.004.179-.026.358-.09.526-.056.149-.137.287-.201.433-.074.169-.123.348-.189.521a2.825 2.825 0 0 1-1.079 1.332l-.007.017a2.821 2.821 0 0 0 1.305-1.466c.066-.172.116-.351.189-.521.063-.146.144-.284.201-.433.063-.168.094-.346.09-.526-.003-.135-.026-.269-.022-.404s.038-.275.132-.373z" opacity=".1" style="fill:var(--color3, #000)"/>
      <path fill="#2f2e41" d="M27.848 31.719c-.049.056-.134.067-.21.075a1.238 1.238 0 0 1-.298.005c-.118-.017-.189.047-.296-.002-.065-.029-.166.029-.231 0-.089-.04-.398-.049-.452-.127s-.049-.203.037-.249a.677.677 0 0 1 .075-.028c.144-.054.436-.461.589-.482a.43.43 0 0 1 .218.048c.151.063.418.113.484.273.051.125.192.364.085.486zM28.913 31.766c.049.059.132.071.208.079.098.014.197.016.295.006.117-.018.259.083.365.032.064-.031.164-.015.228-.046.088-.043.504.052.558-.031s.048-.215-.037-.264a.485.485 0 0 0-.075-.029c-.142-.057-.613-.58-.765-.602a.4.4 0 0 0-.216.051c-.149.067-.413.12-.478.289-.051.132-.19.385-.084.515z" style="fill:var(--color11, #2f2e41)"/>
      <path fill="#2f2e41" d="M29.375 22.507c.046.089.087.18.122.274.413 1.083.447 2.266.464 3.423-.001.188.009.376.032.563.017.118.045.238.027.357-.015.102-.064.203-.044.305.009.046.031.088.039.134a.471.471 0 0 1-.004.15l-.055.408c-.032.233-.104.457-.1.691.003.16.005.32.023.479.018.162.052.322.054.484.001.122-.015.243-.026.364a3.687 3.687 0 0 0-.01.515c.006.132.022.27.092.382-.079.113-.158.214-.285.269-.258.112-.554.074-.832.034.015-.051.039-.109.017-.157a.33.33 0 0 0-.048-.065.753.753 0 0 1-.124-.286c-.034-.122-.067-.253.002-.37a.236.236 0 0 0 .03-.137c-.058-.767-.23-1.561-.071-2.315.017-.08.037-.16.047-.242.008-.117.01-.235.004-.353l-.003-.164c-.008-.175-.001-.353-.036-.526-.025-.124-.072-.248-.014-.374a.201.201 0 0 0-.009-.182 3.314 3.314 0 0 1-.293-.672 1.182 1.182 0 0 0-.062-.191 1.354 1.354 0 0 0-.122-.186c-.138-.198-.221-.429-.302-.656.009-.021.002-.05-.02-.047a.091.091 0 0 0-.053.039c-.111.148-.12.346-.125.53-.008.171-.006.343.009.514.01.09.025.178.033.268.011.167.008.335-.008.502l-.057.822a.577.577 0 0 0 .012.203c.036.115.054.235.053.356-.015.496.028.993.129 1.479.028.134.06.268.083.403.055.318.063.643.07.966.005.198.008.404-.071.587a.679.679 0 0 0-.067.179.396.396 0 0 1-.013.096c-.023.059-.093.084-.155.098a1.26 1.26 0 0 1-.357.025.212.212 0 0 1-.082-.018c-.045-.023-.068-.072-.102-.108-.073-.079-.195-.104-.262-.189-.084-.106-.048-.26.001-.385s.111-.261.068-.389c-.05-.151-.229-.232-.277-.383.137-.61-.199-1.242-.171-1.866.007-.146.032-.29.033-.436.001-.375-.162-.74-.136-1.114.069-.951-.258-1.9-.396-2.844a1.853 1.853 0 0 1-.029-.427c.02-.236.131-.456.264-.653.095-.141.21-.279.368-.345.13-.054.275-.054.416-.053.352.003.703.005 1.055.012.239-.003.478.018.713.063.19.043.368.131.561.159z" style="fill:var(--color11, #2f2e41)"/>
      <path fill="#a1616a" d="M23.744 18.171c-.035-.17.031-.352-.021-.519-.019-.06-.065-.122-.129-.12-.062.002-.104.061-.158.09-.088.046-.195.004-.284-.041s-.186-.097-.282-.07c-.011.059.029.115.073.157a.413.413 0 0 1 .118.135c.014.057.02.116.016.175.01.135.097.251.183.356.14.169.288.331.444.485 0 0 .237-.29.232-.34-.004-.048-.084-.092-.113-.131a.446.446 0 0 1-.081-.177zM30.486 21.646c.02.053.035.109.045.165.058.288.094.581.13.873.01.078.019.156.022.235.01.187-.027.373-.108.54a.74.74 0 0 1-.392.365c-.052.019-.126.023-.148-.03a.12.12 0 0 1 0-.075c.021-.078.063-.148.09-.223a.624.624 0 0 0 .019-.353c-.011-.045-.033-.095-.077-.104a.414.414 0 0 1-.051.3.1.1 0 0 1-.06.052.08.08 0 0 1-.084-.056.245.245 0 0 1-.007-.111c.014-.187.042-.374.083-.557.049-.201.126-.399.121-.607-.004-.188-.077-.372-.057-.559 0-.012.004-.023.01-.032a.06.06 0 0 1 .023-.014.989.989 0 0 1 .156-.053c.032-.008.139-.047.169-.03.024.014.032.098.044.126.022.05.05.097.071.147zM26.817 16.104a.74.74 0 1 0 0-1.48.74.74 0 0 0 0 1.48z" style="fill:var(--color20, #a1616a)"/>
      <path fill="#a1616a" d="M27.532 15.907c0 .049.004.097.012.146a.865.865 0 0 0 .044.142c.025.075.061.146.107.21s.115.11.193.126a5.466 5.466 0 0 1-1.645.478c.09-.06.165-.14.218-.234a.67.67 0 0 0 .058-.191 1.598 1.598 0 0 0-.072-.825c-.009-.026-.019-.058-.001-.079a.08.08 0 0 1 .027-.018c.226-.096.47-.142.715-.134.063 0 .125.003.188.008.034.002.108-.005.135.02.032.03.016.121.017.161l.005.189z" style="fill:var(--color20, #a1616a)"/>
      <path fill="#d0cde1" d="M27.883 16.497a.82.82 0 0 0-.975-.241c-.362.172-.541.584-.86.826a1.47 1.47 0 0 1-.231.141.687.687 0 0 1-.152.06c-.06.013-.122.011-.181.025a.47.47 0 0 0-.27.207c-.03.053-.063.103-.099.152-.033.039-.075.071-.11.108-.127.135-.161.329-.19.511a2.416 2.416 0 0 1-.323.283.469.469 0 0 1-.12.066c-.111.036-.234-.01-.33-.078s-.172-.158-.266-.228a9.39 9.39 0 0 1-.268.362.12.12 0 0 1-.06.049c-.017.058.024.117.055.169l.166.277c.055.101.122.194.2.279a.47.47 0 0 0 .304.147.603.603 0 0 0 .214-.041c.316-.106.607-.274.908-.417a.403.403 0 0 1 .178-.052.143.143 0 0 1 .141.101c.034.173.069.345.116.515.045.16.086.321.125.483.026.099.044.2.055.301.005.058.006.116.006.174l.006.7c.001.075-.043.122-.076.19a.44.44 0 0 0-.021.336c.019.055.048.105.069.159.05.13.048.274.046.413l-.006.32a.07.07 0 0 0 .007.038c.02.031.067.013.097-.008l.151-.104c.202.028.405.037.608.029.578-.008 1.156.015 1.733.055.192.013.391.028.573-.036.092-.032.177-.084.272-.11a.25.25 0 0 0 .108-.044c.053-.048.039-.133.017-.202a2.32 2.32 0 0 0-.064-.176.957.957 0 0 1-.06-.165c-.029-.127-.001-.275-.081-.378-.179-.232-.052-.59-.128-.872-.024-.091-.06-.18-.083-.272a2.07 2.07 0 0 1-.032-.175 2.073 2.073 0 0 1-.035-.385c.002-.065.01-.129.019-.193l.057-.445c.071.132.121.274.146.421.052.22.116.437.191.65.043.128.086.257.132.384.029.072.052.147.068.224.01.062.011.125.018.187a.865.865 0 0 0 .137.373.12.12 0 0 0 .064.056.132.132 0 0 0 .056-.002 2.22 2.22 0 0 0 .578-.198.23.23 0 0 0 .098-.076c.049-.079-.006-.178-.03-.268-.026-.096-.02-.212-.096-.277-.267-.225-.134-.682-.268-1.003-.023-.056-.051-.111-.071-.169a1.493 1.493 0 0 1-.038-.135 33.43 33.43 0 0 0-.299-1.117c-.11-.384-.098-.784-.237-1.16a1.177 1.177 0 0 0-.102-.226.622.622 0 0 0-.184-.188c-.201-.132-.404-.244-.641-.292s-.492-.04-.734-.039z" style="fill:var(--color21, #d0cde1)"/>
      <path fill="#2f2e41" d="M26.126 15.539c-.103-.055-.076-.204-.093-.319-.036-.236-.304-.376-.367-.607a.41.41 0 0 0 .213-.03.318.318 0 0 0-.043-.221c.221-.089.399-.264.624-.344.282-.101.596-.039.88.055.142.047.29.108.375.229.094.134.093.31.088.473-.008.256-.018.521-.133.75-.146.292-.559.562-.901.483-.142-.033-.184-.121-.244-.244-.037-.076-.051-.165-.135-.205-.082-.039-.181.024-.264-.02z" style="fill:var(--color11, #2f2e41)"/>
      <path d="m29.253 20.981.002.061-.002-.061zM25.956 21.744c.05.131.048.276.046.416l-.002.11a.736.736 0 0 0-.044-.222c-.021-.054-.05-.105-.069-.16a.455.455 0 0 1 .003-.296c.019.052.046.1.065.151zM25.87 14.456h-.001a.451.451 0 0 0-.038-.134l.035-.02a.53.53 0 0 1 .004.154z" opacity=".1" style="fill:var(--color3, #000)"/>
      <path fill="#ff6584" d="m1.974 12.978-.179-.163c-.635-.59-1.055-.973-1.055-1.45-.003-.183.067-.36.195-.49s.302-.202.484-.2a.727.727 0 0 1 .555.264.73.73 0 0 1 .555-.264c.181-.002.356.07.484.2s.198.307.195.49c0 .477-.42.86-1.055 1.45l-.179.163z" style="fill:var(--color13, #ff6584)"/>
    </symbol>
    <symbol id="icon-img-4" viewBox="0 0 46 32">
      <path fill="#f2f2f2" d="M17.073 31.175c8.131 0 14.722-6.591 14.722-14.722S25.204 1.731 17.073 1.731 2.351 8.322 2.351 16.453s6.591 14.722 14.722 14.722z" style="fill:var(--color14, #f2f2f2)"/>
      <path fill="#3f3d56" d="M19.436 18.698c-3.242 4.997-2.353 11.353-2.353 11.353s6.144-1.746 9.386-6.743c3.242-4.997 2.353-11.353 2.353-11.353s-6.144 1.746-9.386 6.743z" style="fill:var(--color9, #3f3d56)"/>
      <path fill="#222f65" d="M17.073 29.949s-.079-.013-.225-.042a13.568 13.568 0 0 1-.473-.103c-1.751-.411-6.408-1.8-9.452-5.453-3.81-4.574-3.65-10.964-3.65-10.964s5.826.942 9.665 5.05c.166.176.328.359.486.549 3.315 3.98 3.624 9.334 3.649 10.658.003.198.001.306.001.306z" style="fill:var(--color10, #222f65)"/>
      <path d="M17.073 29.75c-.086.104-.162.192-.224.265-.138.158-.216.241-.216.241s-.095-.12-.255-.344c-.878-1.227-3.703-5.59-3.484-10.629.012-.264.031-.526.058-.784.166.177.327.361.484.551 3.305 3.995 3.613 9.372 3.638 10.701z" opacity=".1" style="fill:var(--color3, #000)"/>
      <path fill="#222f65" d="M21.969 19.651c-.258 5.957-4.699 10.604-4.699 10.604s-4.021-5.011-3.763-10.968 4.699-10.604 4.699-10.604 4.021 5.011 3.763 10.968z" style="fill:var(--color10, #222f65)"/>
      <path fill="#3f3d56" d="M22.748 31.993c12.563 0 22.748-.641 22.748-1.431s-10.184-1.431-22.748-1.431C10.185 29.131 0 29.772 0 30.562s10.184 1.431 22.748 1.431zM3.783 30.051zM3.783 25.143a.818.818 0 1 0 0-1.635.818.818 0 0 0 0 1.635zM3.783 27.904s-.114-2.518-2.454-2.226l2.454 2.226zM23.31 20.747zM23.31 6.025a1.125 1.125 0 1 0 0-2.25 1.125 1.125 0 0 0 0 2.25zM23.31 9.399s-.157-3.434-3.374-3.035l3.374 3.035z" style="fill:var(--color9, #3f3d56)"/>
      <path fill="#2f2e41" d="m36.63 11.955-.959 1.803s-6.932 1.325-6.047 3.385 1.88 5.078 2.397 5.004c.516-.073 3.355-1.693 3.466-2.171s-2.544-2.723-2.544-2.723l4.388-.846s.627 2.944-.184 4.967-1.291 7.506-.737 7.58c.553.074 1.954.515 2.581.11s.922-9.272.922-9.272 1.327-5.813.516-6.476c-.811-.662-3.798-1.361-3.798-1.361z" style="fill:var(--color11, #2f2e41)"/>
      <path fill="#2f2e41" d="M38.128 28.135s-.857-.452-1.037-.09c0 0 .135 1.086-.406 1.221s-.766 1.085 0 1.176c.766.09 1.262-.181 1.533-.181s0-.95 0-.95l-.09-1.176zM34.041 20.73s-.933-.262-1.034.131c0 0 .361 1.036-.14 1.284s-.522 1.227.247 1.153c.769-.074 1.197-.445 1.462-.503s-.2-.932-.2-.932l-.336-1.134z" style="fill:var(--color11, #2f2e41)"/>
      <path fill="#9f616a" d="M38.686 5.602s.036 1.373-.218 1.484 1.42.779 1.42.779l.291-.52s-.328-1.855-.255-2.004-1.238.26-1.238.26z" style="fill:var(--color18, #9f616a)"/>
      <path fill="#2f2e41" d="M39.259 5.923a2.25 2.25 0 1 0 0-4.498 2.25 2.25 0 0 0 0 4.498z" style="fill:var(--color11, #2f2e41)"/>
      <path fill="#2f2e41" d="M39.463 2.447a.92.92 0 1 0 0-1.84.92.92 0 0 0 0 1.84z" style="fill:var(--color11, #2f2e41)"/>
      <path fill="#2f2e41" d="M38.225 1.016c0-.471.358-.866.829-.915a.923.923 0 0 0-1.022.915.923.923 0 0 0 1.022.915.922.922 0 0 1-.829-.915z" style="fill:var(--color11, #2f2e41)"/>
      <path fill="#9f616a" d="M39.157 6.332a1.534 1.534 0 1 0 0-3.069 1.534 1.534 0 0 0 0 3.069z" style="fill:var(--color18, #9f616a)"/>
      <path fill="#d0cde1" d="M40.307 6.824s-1.324.403-1.987 0-2.244.769-2.502 1.282c-.258.513.956 1.025.956 1.025s-.347.99-.276 1.483c.074.513-.055 1.556-.055 1.556s3.25 2.132 3.973 1.172c.11-.146 1.03-3.589 1.03-3.589l1.288-1.282s-.809-1.172-1.288-1.282-1.14-.366-1.14-.366z" style="fill:var(--color21, #d0cde1)"/>
      <path fill="#9f616a" d="M31.38 14.306s-2.48 1.313-1.969 1.688S32 14.531 32 14.531l-.62-.225zM41.193 13.38s-1.124-.789-1.305-.394 1.231 1.283 1.528.935c.297-.348-.223-.541-.223-.541z" style="fill:var(--color18, #9f616a)"/>
      <path fill="#d0cde1" d="m42.098 7.968.656.408s2.222 3.114 1.457 3.818-2.732 2.113-2.732 2.113-.656-.964-.437-1.001c.219-.037 1.967-1.52 1.967-1.52l-1.53-2.891.619-.927zM36.21 7.866l-.477.185-1.248 2.258-3.303 4.035s.44.703.807.555 3.12-3.258 3.12-3.258l1.798-2.813-.697-.963z" style="fill:var(--color21, #d0cde1)"/>
      <path fill="#2f2e41" d="M39.31 3.878c.875 0 1.585-.412 1.585-.92s-.71-.92-1.585-.92-1.585.412-1.585.92.71.92 1.585.92z" style="fill:var(--color11, #2f2e41)"/>
      <path fill="#222f65" d="M28.831 22.894h7.259v7.259h-7.259v-7.259z" style="fill:var(--color10, #222f65)"/>
      <path fill="#fff" d="M33.827 27.946c.76 0 1.24-.646 1.24-1.672 0-1.395-1.069-2.357-2.611-2.357-1.605 0-2.705 1.082-2.705 2.659 0 1.615 1.078 2.656 2.763 2.657.292.001.583-.03.868-.094a.219.219 0 0 0-.092-.428 4.23 4.23 0 0 1-.753.064c-1.386 0-2.276-.85-2.276-2.181 0-1.302.9-2.223 2.163-2.223 1.277 0 2.14.771 2.14 1.924 0 .723-.244 1.187-.627 1.187-.221 0-.345-.134-.345-.357v-1.79h-.553v.385h-.055c-.127-.281-.417-.453-.757-.453-.663 0-1.117.538-1.117 1.312 0 .806.451 1.347 1.127 1.347.379 0 .662-.176.799-.497h.055c.051.309.347.516.737.516zm-1.489-.532c-.392 0-.633-.31-.633-.822 0-.514.237-.815.64-.815.406 0 .666.311.666.815s-.26.822-.673.822z" style="fill:var(--color2, #fff)"/>
    </symbol>
    <symbol id="icon-inn" viewBox="0 0 32 32">
      <path d="M7 3.5a3.5 3.5 0 1 1-7 0 3.5 3.5 0 0 1 7 0zM0 10h7.156v22H0V10zm26.6.242-.027-.009c-.05-.016-.099-.033-.153-.048a4.639 4.639 0 0 0-.29-.056 6.414 6.414 0 0 0-1.284-.13c-4.172 0-6.818 3.034-7.69 4.206V9.999H10v22h7.156v-12s5.408-7.532 7.69-2v14H32V17.153c0-3.324-2.278-6.094-5.352-6.896l-.048-.016z"/>
    </symbol>
    <symbol id="icon-inst" viewBox="0 0 32 32">
      <path d="M10 0h12c5.522 0 10 4.478 10 10v12c0 5.522-4.478 10-10 10H10C4.478 32 0 27.522 0 22V10C0 4.478 4.478 0 10 0zm12 29c3.86 0 7-3.14 7-7V10c0-3.86-3.14-7-7-7H10c-3.86 0-7 3.14-7 7v12c0 3.86 3.14 7 7 7h12zM8 16a8 8 0 1 1 16 0 8 8 0 0 1-16 0zm3 0c0 2.756 2.244 5 5 5s5-2.244 5-5c0-2.758-2.244-5-5-5s-5 2.242-5 5zm14.666-8.6a1.066 1.066 0 1 1-2.131 0 1.066 1.066 0 0 1 2.131 0z"/>
    </symbol>
    <symbol id="icon-twitter" viewBox="0 0 32 32">
      <path d="M32 5.745c-1.19.522-2.458.868-3.78 1.036a6.523 6.523 0 0 0 2.886-3.626 13.11 13.11 0 0 1-4.16 1.588 6.574 6.574 0 0 0-4.792-2.076c-3.632 0-6.556 2.948-6.556 6.562 0 .52.044 1.02.152 1.496-5.454-.266-10.28-2.88-13.522-6.862a6.605 6.605 0 0 0-.898 3.316 6.57 6.57 0 0 0 2.914 5.452 6.479 6.479 0 0 1-2.964-.808v.072c0 3.188 2.274 5.836 5.256 6.446a6.548 6.548 0 0 1-1.72.216 5.8 5.8 0 0 1-1.242-.112c.85 2.598 3.262 4.508 6.13 4.57a13.182 13.182 0 0 1-8.134 2.798c-.538 0-1.054-.024-1.57-.09a18.469 18.469 0 0 0 10.064 2.944c12.072 0 18.672-10 18.672-18.668 0-.29-.01-.57-.024-.848A13.087 13.087 0 0 0 32 5.745z"/>
    </symbol>
    <symbol id="icon-youtube" viewBox="0 0 32 32">
      <path d="M26.912 5.518c1.918.108 2.86.392 3.728 1.936.904 1.542 1.36 4.198 1.36 8.876v.016c0 4.656-.456 7.332-1.358 8.858-.868 1.544-1.81 1.824-3.728 1.954-1.918.11-6.736.176-10.91.176-4.182 0-9.002-.066-10.918-.178-1.914-.13-2.856-.41-3.732-1.954C.46 23.676 0 21 0 16.344v-.016c0-4.676.46-7.332 1.354-8.874.876-1.546 1.82-1.828 3.734-1.938 1.914-.128 6.734-.182 10.916-.182 4.174 0 8.992.054 10.908.184zM22 16.334l-10-6v12l10-6z"/>
    </symbol>
  </defs>
</svg>
